<?xml version="1.0" encoding="UTF-8"?>
<svg id="Layer_1" data-name="Layer 1" xmlns="http://www.w3.org/2000/svg" viewBox="0 0 616.85 720">
  <defs>
    <style>
      .cls-1 {
        fill: #e11837;
      }

      .cls-1, .cls-2 {
        stroke-width: 0px;
      }

      .cls-2 {
        fill: #0066af;
      }
    </style>
  </defs>
  <g>
    <path class="cls-1" d="m45.78,365.62h8.2v30.85H0v-30.85h8.2v-74.98H0v-30.85h53.98v30.85h-8.2v19.36l19.53-19.36h-3.61v-30.85h64.97v30.85h-11.32l-37.08,37.08,38.07,37.9h10.34v30.85H61.69v-30.85h3.77l-13.29-13.13-6.4,6.56v6.56Z"/>
    <path class="cls-1" d="m247.6,374.54l-21.82,21.92h-60.22l-21.82-21.79v-84.04h-8.2v-30.85h53.98v30.85h-8.2v70.73l4.43,4.26h20.02l4.27-4.26v-70.73h-8.2v-30.85h53.98v30.85h-8.2v83.91Z"/>
    <path class="cls-1" d="m350.63,290.63v83.91l-21.82,21.92h-50.04l-21.82-21.82v-33.14h37.57v19.69l4.43,4.43h9.68l4.43-4.26v-70.73h-11.65v-30.85h57.43v30.85h-8.2Z"/>
    <path class="cls-1" d="m456.13,290.63v83.91l-21.82,21.92h-50.04l-21.82-21.82v-33.14h37.57v19.69l4.43,4.43h9.68l4.43-4.26v-70.73h-11.65v-30.85h57.43v30.85h-8.2Z"/>
  </g>
  <polygon class="cls-2" points=".43 186.17 29.93 237.25 56.61 237.25 40.46 209.28 576.82 209.28 308.64 673.78 161.54 419 134.86 419 308.64 720 616.85 186.17 .43 186.17"/>
  <path class="cls-1" d="m600.21,157.35H17.07l13.35-23.11h163.6v-38.35l13.35-23.11h7.7V0h10.59c.33,0,.65,0,.96.01,10.13.31,9.8,5.55,26.05,5.55s33.2-5.56,33.2-5.56v39.5s-15.86,5.56-33.2,5.56-15.54-5.24-26.05-5.55v33.27h7.7l13.35,23.11v38.35h122.38v-38.35l13.35-23.11h7.7V0h10.59c.33,0,.65,0,.96.01,10.13.31,9.8,5.55,26.05,5.55s33.2-5.56,33.2-5.56v39.5s-15.86,5.56-33.2,5.56-15.54-5.24-26.05-5.55v33.27h7.7l13.35,23.11v38.35h163.2l13.34,23.11Z"/>
</svg>